# xmcd CD database file
#
# Track frame offsets:
#	150
#	25144
#	53409
#	71556
#	89011
#	115744
#	144789
#	165241
#	195144
#	214534
#	231306
#	250679
#	273821
#	307539
#
# Disc length: 4484 seconds
#
# Revision: 0
# Processed by: cddbd v1.5.1PL2 Copyright (c) Steve Scherf et al.
# Submitted via: Feurio! 1.68 - http://www.feurio.com
#
DISCID=a111820e
DTITLE=Free - Songs Of Yesterday - live -
DYEAR=1900
DGENRE=Blues
TTITLE0=Ride On A Pony
TTITLE1=Be My Friend
TTITLE2=Fire And Water
TTITLE3=The Stealer
TTITLE4=Don't Say You Love Me
TTITLE5=Mr. Big
TTITLE6=I'll Be Creepin'
TTITLE7=Free Me
TTITLE8=Woman
TTITLE9=I'm A Mover
TTITLE10=Walk In My Shadow
TTITLE11=Songs Of Yesterday
TTITLE12=All Right Now
TTITLE13=Crossroads
EXTD=
EXTT0=
EXTT1=
EXTT2=
EXTT3=
EXTT4=
EXTT5=
EXTT6=
EXTT7=
EXTT8=
EXTT9=
EXTT10=
EXTT11=
EXTT12=
EXTT13=
PLAYORDER=
